<svg xmlns="http://www.w3.org/2000/svg" width="629" height="629" viewBox="0 0 629 629">
  <rect width="100%" height="100%" fill="rgb(153,122,93)"/>
  <path d="M 153 256 L 152 257 L 152 269 L 153 270 L 161 270 L 163 266 L 162 257 L 161 256 Z M 27 258 L 27 371 L 29 373 L 39 373 L 40 372 L 57 372 L 58 373 L 81 373 L 82 372 L 191 372 L 192 373 L 221 373 L 219 371 L 211 367 L 203 359 L 199 353 L 199 351 L 197 349 L 196 343 L 195 342 L 195 336 L 194 335 L 194 312 L 195 311 L 196 300 L 203 285 L 209 279 L 215 275 L 221 274 L 222 273 L 226 273 L 227 272 L 271 272 L 273 274 L 273 372 L 275 373 L 282 373 L 284 371 L 284 274 L 287 271 L 298 271 L 300 274 L 300 371 L 303 373 L 316 373 L 317 372 L 369 372 L 370 373 L 376 373 L 377 372 L 385 372 L 396 368 L 407 359 L 409 360 L 409 371 L 413 373 L 418 373 L 419 372 L 440 372 L 441 373 L 450 373 L 452 371 L 452 321 L 453 320 L 453 317 L 455 314 L 455 312 L 461 305 L 467 301 L 473 300 L 474 299 L 496 299 L 497 300 L 497 371 L 498 372 L 562 372 L 563 373 L 579 372 L 589 368 L 600 359 L 602 360 L 602 371 L 605 373 L 609 373 L 610 372 L 612 372 L 612 370 L 613 369 L 613 365 L 612 364 L 612 346 L 613 345 L 613 293 L 612 292 L 612 290 L 610 288 L 605 288 L 602 290 L 602 299 L 601 300 L 600 300 L 595 295 L 588 290 L 586 290 L 582 288 L 579 288 L 575 286 L 562 286 L 547 292 L 543 295 L 532 307 L 528 317 L 527 326 L 526 327 L 527 328 L 527 337 L 528 338 L 528 342 L 530 345 L 530 347 L 533 351 L 533 353 L 539 360 L 539 362 L 538 363 L 509 363 L 508 362 L 508 300 L 509 299 L 523 299 L 525 297 L 525 292 L 524 290 L 520 290 L 519 289 L 510 290 L 508 288 L 508 258 L 507 257 L 503 257 L 502 256 L 501 257 L 498 257 L 497 259 L 497 288 L 496 289 L 481 289 L 480 290 L 471 290 L 470 291 L 467 291 L 457 296 L 457 297 L 453 300 L 452 299 L 452 293 L 451 292 L 451 290 L 449 288 L 442 288 L 441 290 L 441 361 L 439 363 L 421 363 L 419 359 L 419 344 L 420 343 L 420 322 L 419 321 L 419 298 L 420 297 L 420 295 L 419 294 L 419 289 L 417 289 L 416 288 L 411 288 L 409 290 L 409 299 L 407 300 L 401 294 L 398 293 L 396 291 L 392 289 L 382 287 L 381 286 L 370 286 L 369 287 L 362 288 L 351 294 L 347 298 L 346 298 L 346 299 L 342 303 L 336 314 L 336 317 L 334 322 L 334 337 L 335 338 L 336 345 L 340 353 L 347 361 L 347 362 L 346 363 L 319 363 L 318 362 L 318 257 L 317 256 L 227 256 L 226 257 L 221 257 L 220 258 L 210 260 L 207 262 L 205 262 L 196 268 L 185 281 L 185 283 L 183 285 L 183 287 L 181 290 L 181 293 L 179 296 L 179 299 L 178 300 L 177 310 L 176 311 L 176 336 L 177 337 L 177 342 L 178 343 L 179 350 L 180 351 L 183 362 L 182 363 L 176 363 L 175 364 L 174 363 L 164 363 L 163 362 L 163 358 L 162 357 L 162 344 L 163 343 L 163 328 L 162 327 L 162 321 L 163 320 L 163 309 L 162 308 L 162 285 L 163 284 L 162 283 L 162 280 L 158 278 L 157 279 L 153 279 L 152 281 L 152 359 L 151 360 L 151 362 L 150 363 L 117 363 L 116 362 L 116 361 L 125 352 L 129 346 L 129 344 L 132 339 L 132 337 L 134 333 L 134 330 L 136 327 L 137 312 L 138 311 L 138 304 L 137 303 L 137 290 L 135 286 L 135 282 L 134 281 L 134 278 L 132 275 L 131 270 L 126 261 L 121 256 L 92 256 L 92 257 L 95 257 L 104 263 L 110 269 L 114 275 L 114 277 L 116 280 L 116 282 L 118 286 L 118 294 L 119 295 L 119 316 L 118 317 L 118 323 L 117 324 L 117 328 L 116 329 L 115 334 L 113 336 L 109 344 L 103 350 L 100 352 L 98 352 L 96 354 L 90 355 L 89 356 L 82 356 L 81 357 L 47 357 L 45 355 L 45 258 L 44 256 L 28 256 Z M 562 297 L 578 297 L 579 298 L 584 299 L 586 301 L 589 302 L 596 309 L 600 315 L 600 317 L 602 320 L 602 324 L 603 325 L 603 334 L 602 335 L 602 339 L 599 346 L 595 352 L 591 356 L 585 360 L 583 360 L 579 362 L 576 362 L 575 363 L 565 363 L 561 361 L 558 361 L 551 357 L 543 349 L 539 341 L 538 334 L 537 333 L 538 322 L 542 312 L 551 302 L 556 299 L 558 299 Z M 370 297 L 385 297 L 393 300 L 404 310 L 408 317 L 408 320 L 409 321 L 409 339 L 404 350 L 397 357 L 383 363 L 373 363 L 372 362 L 368 362 L 363 360 L 357 356 L 350 349 L 345 338 L 345 322 L 349 312 L 358 302 L 361 301 L 363 299 L 369 298 Z" fill="white" fill-rule="evenodd"/>
</svg>
