<svg width="1200" height="900" viewBox="0 0 1200 900" fill="none" xmlns="http://www.w3.org/2000/svg">
  <rect width="1200" height="900" fill="#FFF7ED"/>
  <rect x="84" y="84" width="1032" height="732" rx="56" fill="#FFFFFF"/>
  <path d="M256 566C392 512 475 474 570 474C700 474 768 526 860 566C904 584 938 590 984 594V656H220C225 618 233 594 256 566Z" fill="#EAB308"/>
  <path d="M460 420C505 408 556 398 609 398C685 398 744 420 808 454" stroke="#CA8A04" stroke-width="28" stroke-linecap="round"/>
  <path d="M470 452C537 466 611 474 708 478" stroke="#FCD34D" stroke-width="24" stroke-linecap="round"/>
  <circle cx="326" cy="640" r="42" fill="#CA8A04"/>
  <circle cx="846" cy="640" r="42" fill="#CA8A04"/>
  <text x="600" y="232" text-anchor="middle" fill="#92400E" font-size="64" font-family="Arial, sans-serif" font-weight="700">Moleca</text>
  <text x="600" y="300" text-anchor="middle" fill="#B45309" font-size="28" font-family="Arial, sans-serif">Rasteira dourada</text>
</svg>
